<svg width="170" height="50" viewBox="0 50 650 50" fill="black" xmlns="http://www.w3.org/2000/svg">
<g clip-path="url(#clip0_2827_69447)">
<path d="M144.771 35.8141C144.771 16.0372 128.734 0 108.957 0C89.1797 0 73.1425 16.0257 73.1425 35.8027V0C72.8901 0 72.6377 0 72.3854 0C32.4071 0 0 32.4071 0 72.3854C0 112.364 31.9941 144.358 71.6283 144.771H144.771V71.6283H144.014H108.991C128.756 71.6168 144.771 55.5796 144.771 35.8141ZM71.6283 129.594C40.6781 129.192 15.5898 104.093 15.1883 73.1425H71.6283V129.594ZM71.6283 71.6283H1.52571C1.92722 33.1527 33.1527 1.92722 71.6283 1.52571V71.6283ZM143.257 143.257H73.154V73.1425H143.257V143.257ZM73.154 71.6283V35.8256C73.154 55.591 89.1682 71.6168 108.934 71.6283H73.154ZM108.968 56.4629C97.5883 56.4629 88.3193 47.2054 88.3193 35.8141C88.3193 24.4229 97.5769 15.1654 108.968 15.1654C120.359 15.1654 129.605 24.4229 129.605 35.8141C129.605 47.2054 120.348 56.4629 108.968 56.4629ZM233.801 62.8181H255.574C251.892 74.2208 241.774 81.7691 229.419 81.8494C213.829 81.7461 201.75 69.7813 201.75 53.1591C201.75 36.5368 213.634 24.4229 229.419 24.4229C241.166 24.4229 250.733 31.1911 254.874 41.4466H261.895C257.318 27.8529 244.883 18.5151 229.419 18.5151C209.837 18.5151 195.028 33.5198 195.028 53.1706C195.028 72.8213 209.975 87.7458 229.419 87.7916C247.625 87.7458 261.884 74.8747 263.627 56.8988H233.801V62.8296V62.8181ZM568.908 35.8944C561.176 35.8944 554.832 39.2326 550.461 44.0736V37.1334H544.232V108.876H550.461V79.4863C554.855 84.2928 561.233 87.654 568.908 87.7572C583.821 87.5622 593.962 77.0658 593.962 61.8545C593.962 46.6432 583.935 35.9059 568.908 35.9059V35.8944ZM568.908 82.205C558.434 81.9526 550.461 74.2323 550.461 61.843C550.461 49.4538 558.285 41.6761 568.908 41.4696C579.519 41.6761 587.354 49.6947 587.354 61.843C587.354 73.9914 579.381 81.9641 568.908 82.205ZM533.071 78.19V37.1334H526.853V44.0851C522.494 39.2441 516.139 35.9059 508.407 35.9059C493.368 35.9059 483.353 46.4941 483.353 61.8545C483.353 77.2149 493.505 87.5622 508.407 87.7572C516.093 87.654 522.482 84.2813 526.876 79.4518C527.002 83.811 529.514 86.5068 534 86.5068H538.382V80.576H535.835C534.103 80.576 533.082 79.8075 533.082 78.19H533.071ZM508.407 82.205C497.933 81.9526 489.961 74.2323 489.961 61.843C489.961 49.4538 497.796 41.6761 508.407 41.4696C519.018 41.6761 526.853 49.6947 526.853 61.843C526.853 73.9914 518.88 81.9641 508.407 82.205ZM650 61.843C650 46.4827 639.974 35.8944 624.946 35.8944C609.918 35.8944 599.892 46.4827 599.892 61.843C599.892 77.2034 610.045 87.5507 624.946 87.7458C636.567 87.5966 645.274 81.1726 648.555 71.1464H641.568C638.655 77.9835 632.46 82.0329 624.946 82.205C614.759 81.9641 606.959 74.6223 606.546 62.8181H649.966C649.966 62.4854 650.011 62.1757 650.011 61.843H650ZM606.982 56.8873C608.817 47.561 615.849 41.6417 624.935 41.4696C634.02 41.6417 641.052 47.5724 642.888 56.8873H606.982ZM453.779 41.4696C461.351 41.6187 467.488 45.7485 470.39 52.5167H477.422C474.176 42.3758 465.526 35.9059 453.779 35.9059C438.74 35.9059 428.726 46.4941 428.726 61.8545C428.726 77.2149 438.878 87.5622 453.779 87.7572C465.4 87.6081 474.107 81.1726 477.388 71.1464H470.425C467.511 77.9949 461.305 82.0444 453.779 82.2165C443.306 81.9641 435.333 74.2438 435.333 61.8545C435.333 49.4652 443.157 41.6875 453.779 41.4811V41.4696ZM294.463 35.8944C279.424 35.8944 269.409 46.4827 269.409 61.843C269.409 77.2034 279.561 87.5507 294.463 87.7458C306.083 87.5966 314.79 81.1726 318.071 71.1464H311.085C308.171 77.9835 301.977 82.0329 294.463 82.205C284.276 81.9641 276.475 74.6223 276.062 62.8181H319.482C319.482 62.4854 319.528 62.1757 319.528 61.843C319.528 46.4827 309.502 35.8944 294.474 35.8944H294.463ZM276.51 56.8873C278.345 47.561 285.377 41.6417 294.463 41.4696C303.548 41.6417 310.58 47.5724 312.416 56.8873H276.51ZM388.977 49.3391C388.977 44.4751 393.898 41.2287 401.492 41.2287C409.086 41.2287 415.786 45.347 415.786 52.5167H422.015C422.152 40.7928 411.553 35.8944 401.699 35.8944C390.789 35.8944 382.335 40.9534 382.335 49.2473C382.335 68.898 416.508 57.4494 416.508 72.6148C416.508 78.1441 411.587 82.2509 402.49 82.2509C393.393 82.2509 387.52 78.3506 387.072 71.1464H380.683C380.625 79.4518 387.531 87.7916 401.951 87.7916C414.799 87.7916 423.242 81.6888 423.242 72.523C423.242 51.5301 388.965 62.9787 388.965 49.3391H388.977ZM350.765 35.8944C335.726 35.8944 325.711 46.4827 325.711 61.843C325.711 77.2034 335.864 87.5507 350.765 87.7458C365.667 87.5507 375.819 77.0543 375.819 61.843C375.819 46.6318 365.793 35.8944 350.765 35.8944ZM350.765 82.205C340.292 81.9526 332.319 74.2323 332.319 61.843C332.319 49.4538 340.142 41.6761 350.765 41.4696C361.376 41.6761 369.211 49.6947 369.211 61.843C369.211 73.9914 361.239 81.9641 350.765 82.205ZM380.706 71.1464H387.095H380.717H380.706ZM380.706 71.1464H387.095H380.717H380.706Z" />
<path d="M195.268 94.8236H199.398V110.459H218.349V94.8236H222.479V130.477H218.349V114.222H199.398V130.477H195.268V94.8236Z" />
<path d="M231.645 120.658V104.001H235.671V120.508C235.671 124.741 238.78 127.483 242.497 127.483C246.672 127.483 249.93 124.271 249.93 119.889V104.001H253.957V130.489H249.93V126.623H249.621C248.496 129.02 245.651 131.154 241.522 131.154C235.361 131.154 231.645 126.519 231.645 120.658Z" />
<path d="M266.805 126.313H266.495V130.489H262.629V92.277H266.656V108.268H266.966C267.78 106.892 270.476 103.324 276.028 103.324C283.519 103.324 288.658 109.129 288.658 117.285C288.658 125.441 283.255 131.143 275.718 131.143C269.96 131.143 267.47 127.265 266.805 126.302V126.313ZM284.528 117.342C284.528 111.285 280.754 107.006 275.558 107.006C270.361 107.006 266.495 110.781 266.495 117.342C266.495 122.894 269.96 127.529 275.466 127.529C280.559 127.529 284.528 123.502 284.528 117.342Z" />
</g>
<defs>
<clipPath id="clip0_2827_69447">
<rect width="650" height="144" />
</clipPath>
</defs>
</svg>
